<svg xmlns="http://www.w3.org/2000/svg" viewBox="0 0 164.7 99.71"><defs><style>.cls-1{fill:#fff;}.cls-2{fill:#2aa819;}</style></defs><g id="Layer_2" data-name="Layer 2"><g id="Layer_1-2" data-name="Layer 1"><path class="cls-1" d="M160.76,10.7l-.16-.14-.16-.13A45.81,45.81,0,0,0,131.06,0h-.62a53,53,0,0,0-20.18,4.19l-.22.09a62.21,62.21,0,0,0-5.81,3A8.8,8.8,0,0,0,95.7.33H75.1a10.05,10.05,0,0,0-7.6,3.58l-.65.75-.46.89c-.59,1.16-4,8-10.37,21.07-2-9-3.32-15-3.89-17.5-.88-6-5.51-8.79-9.56-8.79H21.41A9.16,9.16,0,0,0,14.13,4L12.88,5.6l-.34,2c-.43,2.45-2,13-4.53,29.57C7.58,39.73,4.77,58,.09,88.68l-.09.6v.61a8.77,8.77,0,0,0,7.53,8.73l.64.1h18A9.25,9.25,0,0,0,34,94.33a9.39,9.39,0,0,0,7.95,4.39H53.51A10,10,0,0,0,61.88,94a8.9,8.9,0,0,0,6.52,4.58l.64.1H87.16a9.07,9.07,0,0,0,8-4.87l.74-1.36.08-.58a45.35,45.35,0,0,0,25.75,7.8h.56A52.73,52.73,0,0,0,148,92.79a51.69,51.69,0,0,0,6.35-4.17l3.22-2.46V79.23L141.43,60.17h-3.71A8.09,8.09,0,0,0,133,61.69a15.49,15.49,0,0,1-8.38,2.74h-1.21a13.14,13.14,0,0,1-3.62-.64,9,9,0,0,1-2.06-.92l-.66-.46-.43-.2a20.84,20.84,0,0,1-2-1.72,12,12,0,0,1-3-7.9v-.66a16,16,0,0,1,3.11-9.13l.19-.28.07-.12a30,30,0,0,1,2.36-2.54,19.6,19.6,0,0,1,2.18-1.73,16.51,16.51,0,0,1,8.54-2.85h1.12a12,12,0,0,1,7.77,2.9l2.25,1.74h5.94l2.3-2.13c1.11-1,10.68-10.24,14.74-14.15l2.45-2.36v-3.4C164.7,14.23,162.51,12.28,160.76,10.7Z"/><path class="cls-2" d="M95.7,8.33H75.1a2.12,2.12,0,0,0-1.58.85Q72.29,11.6,53.15,50.64h0q-7.71-35.1-8.87-40.11c-.15-1.47-.71-2.2-1.68-2.2H21.41a1.32,1.32,0,0,0-1,.62q-.59,3.39-4.51,29.46Q15.39,41.52,8,89.89c0,.46.27.74.82.83H26.16a1.26,1.26,0,0,0,1.09-.7l5.2-33.81h.07q.33,1.65,7.71,32.17.3,2.34,1.71,2.34H53.51c.88,0,1.64-.72,2.28-2.15L72.3,56.15h0v0Q68.91,89,68.87,89.89c0,.46.27.74.82.83H87.16c.37,0,.69-.24,1-.73q.36-3,3.07-29.59c0-.06,0-.11,0-.17q.63-6,2.14-20.71,1.26-12.2,3.11-30.34C96.32,8.61,96.07,8.33,95.7,8.33Z"/><path class="cls-2" d="M137.59,68.24a23.58,23.58,0,0,1-13,4.19h-.19l-.43,0a2,2,0,0,0-.36,0h-.23a21.43,21.43,0,0,1-6.1-1,17.38,17.38,0,0,1-4.22-2,18.61,18.61,0,0,1-4.28-3.46,20.14,20.14,0,0,1-5.11-13.34v-.66a23.86,23.86,0,0,1,4.51-13.65A26.14,26.14,0,0,1,111.92,34a28.84,28.84,0,0,1,3.36-2.64,24.26,24.26,0,0,1,12.85-4.11h.2a3.62,3.62,0,0,0,.43,0,2,2,0,0,0,.36,0h.13A20,20,0,0,1,142,31.92h.06q1-.95,14.63-14a12.41,12.41,0,0,0-1.28-1.22A37.81,37.81,0,0,0,131.06,8h-.62a44.91,44.91,0,0,0-17.14,3.59,52.45,52.45,0,0,0-8.4,4.68,49.59,49.59,0,0,0-6.79,5.67,52.26,52.26,0,0,0-4.58,5.27,50.14,50.14,0,0,0-6.64,12.31,42.84,42.84,0,0,0-2.62,14.81,39.16,39.16,0,0,0,.46,6.07,37.86,37.86,0,0,0,7.54,17.4,39.92,39.92,0,0,0,5.15,5.27,37.63,37.63,0,0,0,24.28,8.64h.56a44.62,44.62,0,0,0,21.86-5.94,45.23,45.23,0,0,0,5.4-3.56v-.06l-11.8-14A.21.21,0,0,0,137.59,68.24Z"/></g></g></svg>