<svg xmlns="http://www.w3.org/2000/svg" viewBox="0 0 667.73 111.79"><defs><style>.cls-1{fill:#fff;}</style></defs><g id="Layer_2" data-name="Layer 2"><g id="Layer_1-2" data-name="Layer 1"><rect class="cls-1" y="99.92" width="667.73" height="11.87"/><path class="cls-1" d="M667.73,0V11.87H349.41l0,0-.17-.14-.16-.14A45.84,45.84,0,0,0,319.68,1.13h-.63a53.18,53.18,0,0,0-20.17,4.19l-.22.09a60.06,60.06,0,0,0-9.58,5.33c-.51.33-1.05.71-1.62,1.13H96.34c0-.25,0-.49.07-.74l.14-1.32-.3-1.3a8.76,8.76,0,0,0-8.55-7H67.1A10.08,10.08,0,0,0,59.52,5l-.68.77-.46.92q-.39.78-2.55,5.17H44.49c-.14-.66-.26-1.19-.36-1.62-.89-6-5.52-8.79-9.56-8.79H13.41A9.15,9.15,0,0,0,6.15,5.12L4.89,6.71l-.35,2c-.11.59-.28,1.65-.51,3.17H0V0Z"/><path class="cls-1" d="M13.41,9.46H34.57c1,0,1.53.73,1.68,2.2q1.16,5,8.87,40.11h0q19.16-39,20.37-41.46a2.12,2.12,0,0,1,1.58-.85H87.7c.37,0,.62.28.76.85q-4.09,40-5.24,51.05-2.75,26.79-3.1,29.76c-.27.49-.58.73-1,.73H61.69c-.54-.09-.82-.37-.82-.83s1.18-11.81,3.46-33.71v0h0L47.79,89.7c-.64,1.43-1.4,2.15-2.28,2.15H34c-1,0-1.52-.78-1.72-2.34Q24.85,59,24.52,57.34h-.07l-5.2,33.81a1.26,1.26,0,0,1-1.09.7H.82C.27,91.76,0,91.48,0,91Q7.38,42.65,7.91,39.54q3.91-26.05,4.51-29.46A1.32,1.32,0,0,1,13.41,9.46Z"/><path class="cls-1" d="M103.22,19.34h44.49c.55.11.83.39.83.83Q147.15,34.27,147,34.7a1.13,1.13,0,0,1-1.05.69H117.82a9.5,9.5,0,0,0-.26,2.21l-1.06,9.95H139a1,1,0,0,1,1,.53.88.88,0,0,1,.07.3Q138.72,63,138.58,63a1.22,1.22,0,0,1-1.15.63H114.85q0,.12-1.25,12.16h28.18c.62.06.92.34.92.82q-1.38,14.31-1.48,14.6a1.17,1.17,0,0,1-1,.63H95.81c-.51-.11-.76-.37-.76-.76q4.24-41.29,4.58-44.56Q102.3,20.46,102.36,20C102.61,19.55,102.89,19.34,103.22,19.34Z"/><path class="cls-1" d="M157.53,19.34h48.58c.42,0,.68.28.79.83q-1.38,14.6-1.51,14.6a1.18,1.18,0,0,1-1,.62H188.68q-4.26,41-4.58,44.66-1.09,10.38-1.19,11.2a1,1,0,0,1-1,.6H166.7c-.51-.11-.76-.37-.76-.76q4.77-46.44,5-48.09l.76-7.61H156c-.55-.11-.82-.38-.82-.82q1.38-14.64,1.51-14.64A1.19,1.19,0,0,1,157.53,19.34Z"/><path class="cls-1" d="M236.36,19.34h13.81c.57,0,.94.46,1.09,1.39q8.61,40.2,9.62,45,5.34,24.81,5.41,25.47-.1.63-.63.63H250.27c-.66,0-1.06-.63-1.22-1.88-1-4.51-1.45-6.81-1.45-6.92H223.94c-2.29,5.16-3.52,7.9-3.69,8.2a1.43,1.43,0,0,1-1.12.6H203.87c-.35,0-.53-.2-.53-.46v-.1c0-.16.65-1.66,1.95-4.52Q223.55,46,224.2,44.52q10.59-23.7,11-24.55A1.59,1.59,0,0,1,236.36,19.34Zm-4.94,47H244l-4-19q-.14.2-2.94,6.52Z"/><path class="cls-1" d="M319.05,9.13h.63A37.8,37.8,0,0,1,344,17.79,13.44,13.44,0,0,1,345.32,19q-13.6,13.09-14.63,14h-.07a20,20,0,0,0-12.75-4.64h-.14a2,2,0,0,1-.36,0,3.28,3.28,0,0,1-.43,0h-.19a24.29,24.29,0,0,0-12.86,4.11,28.84,28.84,0,0,0-3.36,2.64,26.43,26.43,0,0,0-3.72,4.25,23.88,23.88,0,0,0-4.52,13.65v.66a20.14,20.14,0,0,0,5.11,13.34,18.61,18.61,0,0,0,4.28,3.46,17.56,17.56,0,0,0,4.22,2,21.55,21.55,0,0,0,6.1,1h.23a2,2,0,0,1,.36,0l.43,0h.2a23.58,23.58,0,0,0,13-4.19.23.23,0,0,1,.14-.07l11.79,14v.06a45.23,45.23,0,0,1-5.4,3.56,44.55,44.55,0,0,1-21.85,5.94h-.56A37.65,37.65,0,0,1,286,84.2a39.76,39.76,0,0,1-5.14-5.27,37.7,37.7,0,0,1-8-23.47q0-14.33,9.26-27.12a53.58,53.58,0,0,1,4.58-5.27,50.2,50.2,0,0,1,6.79-5.67,52.12,52.12,0,0,1,8.41-4.68A44.87,44.87,0,0,1,319.05,9.13Z"/><path class="cls-1" d="M392.15,18.68h.2a33.4,33.4,0,0,1,22.57,8.44,31.83,31.83,0,0,1,3.86,4.28,34.12,34.12,0,0,1,3.53,5.71,34.59,34.59,0,0,1,3.19,14.56q0,12.53-8,23.7a56.37,56.37,0,0,1-4.28,4.94,46,46,0,0,1-7.09,5.7,39.9,39.9,0,0,1-21.52,6.5h-.19a33.43,33.43,0,0,1-22.58-8.44A31.77,31.77,0,0,1,358,79.78a34,34,0,0,1-3.52-5.7,34.64,34.64,0,0,1-3.2-14.56q0-12.52,8-23.7a56.37,56.37,0,0,1,4.28-4.94,47.27,47.27,0,0,1,7.09-5.71A40,40,0,0,1,392.15,18.68Zm-1.75,17H390a21.2,21.2,0,0,0-10.54,3.06,24,24,0,0,0-4.39,3.37,23,23,0,0,0-3.46,4.31,21.3,21.3,0,0,0-3.33,11.27,17.9,17.9,0,0,0,5.37,12.92c.07,0,.47.39,1.19,1A18,18,0,0,0,382,75a17.28,17.28,0,0,0,3.73.46h.49a0,0,0,0,1,0,0l.07,0h.36a21.23,21.23,0,0,0,10.55-3.06,24.32,24.32,0,0,0,4.38-3.37,22.62,22.62,0,0,0,3.46-4.31,21.33,21.33,0,0,0,3.33-11.27,17.9,17.9,0,0,0-5.37-12.92c-.07,0-.46-.39-1.19-1a17.73,17.73,0,0,0-7.48-3.46,18,18,0,0,0-3.39-.39h-.5a0,0,0,0,1,0,0Z"/><path class="cls-1" d="M437.33,19.34h15.43c.53.09.79.34.79.76l-4.38,42.15c-.33,3.38-.5,5.18-.5,5.37v.6a7.15,7.15,0,0,0,2.61,5.47,7.26,7.26,0,0,0,4.64,1.71h.33a9,9,0,0,0,6.16-2.6,9.8,9.8,0,0,0,2.31-3.46,9,9,0,0,0,.59-2.87q0-.1,4.32-41.85a33.32,33.32,0,0,1,.6-4.82,1,1,0,0,1,.75-.46h15.49c.49.11.73.35.73.73q-4.05,39.71-4.39,42.64a51.31,51.31,0,0,1-1.15,8.41,40.32,40.32,0,0,1-1.55,4.41,33.69,33.69,0,0,1-3.59,5.87,33.79,33.79,0,0,1-5.44,5.34,27.84,27.84,0,0,1-16.64,5.77h-.36a22.92,22.92,0,0,1-14.24-4.88,21.58,21.58,0,0,1-3.79-3.86,22.78,22.78,0,0,1-4.61-14q0-1.68.88-9.76l4.12-40A1.06,1.06,0,0,1,437.33,19.34Z"/><path class="cls-1" d="M502.06,19.34h22a24.11,24.11,0,0,1,16.21,6.16,25.27,25.27,0,0,1,3.5,4A24,24,0,0,1,548,43v.62a28.72,28.72,0,0,1-5.54,16.51,33.16,33.16,0,0,1-3.56,4.13,28.09,28.09,0,0,1-5.43,4.25,23.57,23.57,0,0,1-2.94,1.61v0q14,20.07,14.41,20.67a.56.56,0,0,1,.06.23v.06c0,.22-.16.36-.49.4H527.31c-.86,0-1.61-.6-2.24-1.81Q523.78,88,513.37,73h-.76q-1.75,17.34-1.88,18.19a1,1,0,0,1-.86.63H494.51c-.41,0-.65-.26-.72-.76l4.12-40.5q.06-.17,3.16-30.52A1,1,0,0,1,502.06,19.34Zm14.57,16.45c.15.13.23.23.23.29q-2,19.71-2.11,20.44h3a11.56,11.56,0,0,0,8.83-4.22,11.23,11.23,0,0,0,2.67-7v-.43a9.07,9.07,0,0,0-3.46-7.09,8.43,8.43,0,0,0-2.44-1.31,11.09,11.09,0,0,0-4.68-.66Z"/><path class="cls-1" d="M585.87,18.68H586a21.8,21.8,0,0,1,22.31,21.89v2.1c0,.42-.33.71-1,.86H592.46c-.42,0-.62-.27-.62-.82v-1a7.56,7.56,0,0,0-1.72-4.45,7.71,7.71,0,0,0-5.9-2.61A9.61,9.61,0,0,0,577,37.86a6.41,6.41,0,0,0-1.48,3.89q0,5.25,9.06,8.27,8.13,2.67,11.93,5.31a14.76,14.76,0,0,1,6.56,12.76q0,7.38-6.46,14.89-8.67,9.52-20.3,9.53h-.14A22.21,22.21,0,0,1,560,85.78a21.82,21.82,0,0,1-6.07-15.12V68.51a1,1,0,0,1,1.06-.85h14.56c.47,0,.73.36.8,1.08a9.39,9.39,0,0,0,1.48,4.78,7.13,7.13,0,0,0,6.16,3,9.42,9.42,0,0,0,7-3.09,6.21,6.21,0,0,0,1.65-4.12q0-4-5.93-7c-1.21-.55-3.49-1.38-6.86-2.5a41.67,41.67,0,0,1-7.81-3.76,15.31,15.31,0,0,1-6-7.35,17.37,17.37,0,0,1-.92-5.67q0-7.35,6.43-14.86Q574.19,18.69,585.87,18.68Z"/><path class="cls-1" d="M622.42,19.34h44.49c.55.11.82.39.82.83q-1.38,14.1-1.51,14.53a1.14,1.14,0,0,1-1.06.69H637a9.5,9.5,0,0,0-.26,2.21l-1.06,9.95h22.54a1,1,0,0,1,1,.53.88.88,0,0,1,.07.3Q657.92,63,657.78,63a1.22,1.22,0,0,1-1.15.63H634.05q0,.12-1.25,12.16H661c.61.06.92.34.92.82q-1.38,14.31-1.48,14.6a1.19,1.19,0,0,1-1,.63H615c-.5-.11-.75-.37-.75-.76q4.25-41.29,4.58-44.56Q621.5,20.46,621.56,20A1,1,0,0,1,622.42,19.34Z"/></g></g></svg>