<svg xmlns="http://www.w3.org/2000/svg" viewBox="0 0 230.3 79.29">
  <defs>
    <style>
      .cls-1 {
        fill: #fff;
      }
    </style>
  </defs>
  <g id="Layer_2" data-name="Layer 2">
    <g id="Layer_1-2" data-name="Layer 1">
      <path class="cls-1" d="M15.13,45.81H35.5V60.43H0V1.27H15.13Z" />
      <path class="cls-1"
        d="M88.78,52.78a30.11,30.11,0,0,1-22,8.92,30.11,30.11,0,0,1-22-8.92,29.65,29.65,0,0,1-9-21.93,29.65,29.65,0,0,1,9-21.93A30.07,30.07,0,0,1,66.77,0a30.07,30.07,0,0,1,22,8.92,29.65,29.65,0,0,1,9,21.93A29.65,29.65,0,0,1,88.78,52.78ZM55.36,42.38a15.53,15.53,0,0,0,11.41,4.53,15.54,15.54,0,0,0,16-16.06,15.53,15.53,0,0,0-16-16.06,15.54,15.54,0,0,0-16,16.06A15.5,15.5,0,0,0,55.36,42.38Z" />
      <path class="cls-1"
        d="M163.53,26.54v6q0,13-8.15,21.08T134.21,61.7q-13.86,0-22.78-8.88a29.67,29.67,0,0,1-8.91-21.89,30,30,0,0,1,8.87-22,29.71,29.71,0,0,1,22-9,31.41,31.41,0,0,1,15.17,3.72,28.34,28.34,0,0,1,10.78,9.89L146.46,21a12.54,12.54,0,0,0-5.19-4.48,17.23,17.23,0,0,0-7.74-1.69A15.39,15.39,0,0,0,122,19.35,16,16,0,0,0,117.56,31,16.31,16.31,0,0,0,122,42.6q4.43,4.73,12.46,4.73,10.32,0,13.61-7.78H133.7v-13Z" />
      <path class="cls-1"
        d="M221.3,52.78a31.63,31.63,0,0,1-44,0,29.65,29.65,0,0,1-9-21.93,29.65,29.65,0,0,1,9-21.93,31.63,31.63,0,0,1,44,0,29.65,29.65,0,0,1,9,21.93A29.65,29.65,0,0,1,221.3,52.78Zm-33.43-10.4a16,16,0,0,0,27.39-11.53,16,16,0,1,0-31.95,0A15.53,15.53,0,0,0,187.87,42.38Z" />
      <path class="cls-1"
        d="M6,79.29a6.53,6.53,0,0,1-3.62-.92,4.89,4.89,0,0,1-2-2.5l3-1.75A2.74,2.74,0,0,0,6.08,76c1.07,0,1.61-.31,1.61-.92,0-.4-.31-.73-.93-1C6.5,74,5.92,73.77,5,73.51A7.53,7.53,0,0,1,2,72,3.53,3.53,0,0,1,.94,69.2a3.9,3.9,0,0,1,1.37-3.09,5,5,0,0,1,3.41-1.18,5.79,5.79,0,0,1,3.07.81,5.22,5.22,0,0,1,2.05,2.34L7.89,69.81a2.22,2.22,0,0,0-2.15-1.53,1.5,1.5,0,0,0-1,.25.8.8,0,0,0-.33.66.92.92,0,0,0,.48.77,8.53,8.53,0,0,0,1.88.73l1.6.58a6.25,6.25,0,0,1,1.35.7,3,3,0,0,1,1.09,1.24A4.2,4.2,0,0,1,11.21,75a3.83,3.83,0,0,1-1.43,3.17A6,6,0,0,1,6,79.29Z" />
      <path class="cls-1" d="M26.05,75.59h4.74V79H22.53V65.23h3.52Z" />
      <path class="cls-1"
        d="M53.23,77.22a7.38,7.38,0,0,1-10.25,0A7.19,7.19,0,0,1,48.1,64.93,7,7,0,0,1,53.23,67a7.26,7.26,0,0,1,0,10.21ZM45.45,74.8a3.93,3.93,0,1,0-1.06-2.69A3.62,3.62,0,0,0,45.45,74.8Z" />
      <path class="cls-1"
        d="M80.67,71.11v1.4a6.6,6.6,0,0,1-1.9,4.9,6.69,6.69,0,0,1-4.93,1.88,7.17,7.17,0,0,1-5.3-2.06,7.19,7.19,0,0,1,5.1-12.3,7.24,7.24,0,0,1,3.53.87,6.5,6.5,0,0,1,2.51,2.3l-3,1.71a2.9,2.9,0,0,0-1.21-1,3.91,3.91,0,0,0-1.8-.4A3.56,3.56,0,0,0,71,69.44,3.68,3.68,0,0,0,70,72.15a3.82,3.82,0,0,0,1,2.7A3.78,3.78,0,0,0,73.9,76a3.08,3.08,0,0,0,3.17-1.81H73.72v-3Z" />
      <path class="cls-1"
        d="M104.15,77.22a7.38,7.38,0,0,1-10.25,0A7.19,7.19,0,0,1,99,64.93,7,7,0,0,1,104.15,67a7.26,7.26,0,0,1,0,10.21ZM96.37,74.8a3.78,3.78,0,0,0,5.31-5.37,3.78,3.78,0,0,0-5.31,5.37Z" />
      <path class="cls-1" d="M125.51,65.23H129V79H126.3l-4.86-6.93V79h-3.53V65.23h2.74l4.86,6.92Z" />
      <path class="cls-1" d="M162.93,65.23h3.5V79h-3.5V73.71h-3.87V79h-3.53V65.23h3.53v5.09h3.87Z" />
      <path class="cls-1" d="M182.17,75.69h5.34V79h-8.86V65.23h8.76v3.28h-5.24v1.91h4.75v3.25h-4.75Z" />
      <path class="cls-1"
        d="M206.4,79,204,74.55h-1.25V79h-3.53V65.23h5.51a5,5,0,0,1,3.53,1.34A4.48,4.48,0,0,1,209.68,70a4.29,4.29,0,0,1-.63,2.27,4.57,4.57,0,0,1-1.71,1.64l2.83,5.1Zm-3.66-10.53v3.09h1.94a1.36,1.36,0,0,0,1.07-.41,1.58,1.58,0,0,0,.41-1.12,1.56,1.56,0,0,0-.41-1.12,1.42,1.42,0,0,0-1.07-.44Z" />
      <path class="cls-1" d="M225,75.69h5.33V79h-8.85V65.23h8.75v3.28H225v1.91h4.74v3.25H225Z" />
    </g>
  </g>
</svg>